<?xml version="1.0" encoding="UTF-8"?>
<svg width="45px" height="45px" viewBox="0 0 45 45" version="1.1" xmlns="http://www.w3.org/2000/svg" xmlns:xlink="http://www.w3.org/1999/xlink">
    <!-- Generator: Sketch 47.1 (45422) - http://www.bohemiancoding.com/sketch -->
    <title>AngryFace_Red</title>
    <desc>Created with Sketch.</desc>
    <defs></defs>
    <g id="Presentation-Mode" stroke="none" stroke-width="1" fill="none" fill-rule="evenodd">
        <g id="Revision_11/14" transform="translate(-1081.000000, -673.000000)" fill-rule="nonzero" fill="#F43348">
            <g id="AngryFace_Red" transform="translate(1081.000000, 673.000000)">
                <g id="Group">
                    <path d="M22.6037288,0.477931034 C10.5498305,0.477931034 0.743644068,10.4531897 0.743644068,22.7149138 C0.743644068,34.9766379 10.5498305,44.9518966 22.6037288,44.9518966 C34.6576271,44.9518966 44.4638136,34.9766379 44.4638136,22.7149138 C44.4638136,10.4531897 34.6576271,0.477931034 22.6037288,0.477931034 Z M22.6037288,42.6607759 C11.7922881,42.6607759 2.9959322,33.7127586 2.9959322,22.7149138 C2.9959322,11.717069 11.7922881,2.76905172 22.6037288,2.76905172 C33.4151695,2.76905172 42.2115254,11.717069 42.2115254,22.7149138 C42.2115254,33.7127586 33.4159322,42.6607759 22.6037288,42.6607759 Z" id="Shape"></path>
                    <path d="M34.1801695,26.1721552 C33.6500847,25.8408621 32.9567797,26.0107759 32.6311017,26.55 C29.9044068,31.0771552 26.3433051,33.57 22.6029661,33.57 C18.8633898,33.57 15.3022881,31.0771552 12.5755932,26.55 C12.250678,26.0107759 11.5581356,25.8408621 11.0272881,26.1721552 C10.4972034,26.5026724 10.3309322,27.207931 10.6550847,27.7471552 C13.8073729,32.979569 18.050339,35.8618966 22.6029661,35.8618966 C27.1555932,35.8618966 31.399322,32.9803448 34.5516102,27.7471552 C34.8772881,27.207931 34.7110169,26.5026724 34.1801695,26.1721552 Z" id="Shape" transform="translate(22.603881, 30.932357) scale(-1, 1) rotate(-180.000000) translate(-22.603881, -30.932357) "></path>
                    <ellipse id="Oval" cx="15.2839831" cy="16.7694828" rx="3.00279661" ry="3.05456897"></ellipse>
                    <ellipse id="Oval" cx="29.9234746" cy="16.7694828" rx="3.00279661" ry="3.05456897"></ellipse>
                </g>
            </g>
        </g>
    </g>
</svg>