<?xml version="1.0" encoding="UTF-8"?>
<svg width="19px" height="19px" viewBox="0 0 19 19" version="1.1" xmlns="http://www.w3.org/2000/svg" xmlns:xlink="http://www.w3.org/1999/xlink">
    <!-- Generator: Sketch 47 (45396) - http://www.bohemiancoding.com/sketch -->
    <title>Clock Icon</title>
    <desc>Created with Sketch.</desc>
    <defs></defs>
    <g id="Designs-" stroke="none" stroke-width="1" fill="none" fill-rule="evenodd">
        <g id="Professor_01" transform="translate(-416.000000, -144.000000)" fill-rule="nonzero" fill="#000000">
            <g id="Clock-Icon" transform="translate(416.000000, 144.000000)">
                <path d="M9.5,0 C4.26163736,0 0,4.26163736 0,9.5 C0,14.7383626 4.26163736,19 9.5,19 C14.7383626,19 19,14.7383626 19,9.5 C19,4.26163736 14.7383626,0 9.5,0 Z M9.5,17.5384615 C5.06757143,17.5384615 1.46153846,13.9324286 1.46153846,9.5 C1.46153846,5.06757143 5.06757143,1.46153846 9.5,1.46153846 C13.9324286,1.46153846 17.5384615,5.06757143 17.5384615,9.5 C17.5384615,13.9324286 13.9324286,17.5384615 9.5,17.5384615 Z M9.5,2.26204396 C9.09640659,2.26204396 8.76923077,2.58921978 8.76923077,2.99281319 L8.76923077,9.1889011 L5.40915385,12.4184835 C5.1180989,12.6982637 5.10891209,13.1609451 5.38869231,13.4517912 C5.53234066,13.6010769 5.72359341,13.676033 5.91547253,13.676033 C6.09774725,13.676033 6.28023077,13.6083846 6.422,13.472044 L10.0063187,10.0267802 C10.1497582,9.88897802 10.2307692,9.69876923 10.2307692,9.5 L10.2307692,2.99281319 C10.2307692,2.58921978 9.90359341,2.26204396 9.5,2.26204396 Z" id="Shape"></path>
            </g>
        </g>
    </g>
</svg>