<?xml version="1.0" encoding="UTF-8"?>
<svg width="45px" height="45px" viewBox="0 0 45 45" version="1.1" xmlns="http://www.w3.org/2000/svg" xmlns:xlink="http://www.w3.org/1999/xlink">
    <!-- Generator: Sketch 47 (45396) - http://www.bohemiancoding.com/sketch -->
    <title>Confusion_Icon</title>
    <desc>Created with Sketch.</desc>
    <defs></defs>
    <g id="Designs-" stroke="none" stroke-width="1" fill="none" fill-rule="evenodd">
        <g id="Professor_01" transform="translate(-571.000000, -600.000000)">
            <g id="Confusion_Icon" transform="translate(572.000000, 601.000000)">
                <g id="Group-4" stroke-width="1.71" stroke="#000000">
                    <circle id="Oval-3" cx="21.5" cy="21.5" r="21.5"></circle>
                </g>
                <g id="noun_1072167_cc" transform="translate(10.750000, 8.958333)" fill-rule="nonzero" fill="#000000">
                    <path d="M1.28769336,16.5606197 L1.96080495,16.7771477 L1.96080495,20.2843663 C1.96525659,21.7723564 3.18145749,22.9762701 4.68017578,22.9762635 L7.40223905,22.9762635 L7.82495313,24.312856 C7.99224031,24.8805161 8.59134861,25.2060527 9.16309897,25.0399623 C9.73484934,24.8738719 10.0627315,24.2790495 9.89544439,23.7113894 L9.25194971,21.6022465 C9.11567645,21.14719 8.69351907,20.8358308 8.21535786,20.8377156 L4.68017578,20.8377156 C4.36790639,20.8377156 4.11476204,20.5863822 4.11476204,20.2763468 L4.11476204,15.9992509 C4.11441886,15.5367109 3.81456932,15.1268279 3.37164684,14.9834406 L2.25697405,14.6332534 L4.02591131,10.6929788 C4.09073965,10.5464953 4.12288661,10.3878223 4.12014693,10.2278447 C4.08881523,7.44990726 5.50779067,4.85374655 7.87072472,3.36577896 C9.15696222,2.55175474 10.6533691,2.12554405 12.1786389,2.13878708 L12.2028709,2.13878708 C16.4497467,2.15834581 19.9560194,5.43977561 20.2263611,9.64776353 C20.3629199,11.7298256 19.6673576,13.7814145 18.2904922,15.3576865 C18.0877215,15.5938155 17.9438281,15.8740488 17.8704705,16.1756811 L17.8704705,16.1756811 C17.7826042,16.5279003 17.7909691,16.897016 17.8947025,17.2449551 L19.6124833,22.9281462 C19.7192563,23.2977455 20.0165182,23.5827142 20.3922934,23.6757073 C20.7680686,23.7687004 21.1652679,23.65559 21.4342701,23.3789838 C21.7032724,23.1023775 21.8032098,22.7042985 21.6964368,22.3346992 L20.080969,17.0952567 C20.0105922,16.8539223 20.0628142,16.5936829 20.2209762,16.3975555 C21.7680949,14.451878 22.5353435,12.006629 22.3749333,9.53281657 C22.0430954,4.19194965 17.5950924,0.0224746643 12.2055634,0.000239146133 L12.1786389,0.000239146133 C10.1512142,-0.013697308 8.16699116,0.581784246 6.48680729,1.70840431 C3.69128595,3.57392441 1.9996728,6.68601933 1.9634974,10.030029 L0.178405456,14.0130745 C0.0724517985,14.2398955 0.0120903058,14.4850623 0.00070399613,14.7348344 C-0.0218760342,15.5583527 0.500665361,16.2996551 1.28769336,16.5606197 Z" id="Shape"></path>
                    <path d="M17.2275639,9.84980481 C17.2249862,8.12619658 16.388369,6.50219477 14.9647464,5.45733036 C13.5411237,4.41246596 11.6931258,4.06610091 9.96642445,4.52050897 C8.18552655,4.97448284 6.74892166,6.24031467 6.12167722,7.90822086 C5.9526245,8.35115415 6.019071,8.84568557 6.2996253,9.2326084 C6.58017961,9.61953124 7.03942049,9.84999476 7.52950246,9.84980481 L10.8570894,9.84980481 C12.5601123,9.85257948 13.9391582,11.1827064 13.9391558,12.8225409 C13.9411431,13.2474115 14.2161546,13.6266987 14.6296882,13.7749012 C15.0432218,13.9231037 15.5088496,13.8092475 15.7988433,13.4890172 C16.7198236,12.4841729 17.2279014,11.1900059 17.2275639,9.84980481 L17.2275639,9.84980481 Z" id="Shape"></path>
                </g>
            </g>
        </g>
    </g>
</svg>