<?xml version="1.0" encoding="UTF-8"?>
<svg width="18px" height="18px" viewBox="0 0 18 18" version="1.1" xmlns="http://www.w3.org/2000/svg" xmlns:xlink="http://www.w3.org/1999/xlink">
    <!-- Generator: Sketch 47 (45396) - http://www.bohemiancoding.com/sketch -->
    <title>noun_1296008_cc</title>
    <desc>Created with Sketch.</desc>
    <defs></defs>
    <g id="Designs-" stroke="none" stroke-width="1" fill="none" fill-rule="evenodd">
        <g id="Professor_01" transform="translate(-587.000000, -521.000000)" fill-rule="nonzero" fill="#000000">
            <g id="Group-3" transform="translate(587.000000, 520.000000)">
                <g id="noun_1296008_cc" transform="translate(0.000000, 1.000000)">
                    <g id="Group">
                        <path d="M8.95,0.0656332584 C8.65078,0.090934382 8.39586,0.37508764 8.4,0.678695056 L8.4,1.28543663 L0.6,1.28543663 C0.27902,1.28543663 0.00172,1.58494449 0,1.8921782 L0,3.10566135 C4e-05,3.42335124 0.28586,3.71240292 0.6,3.71240292 L1,3.71240292 L1,13.0157798 C1,13.4534629 1.36718,13.8247685 1.8,13.8247685 L8.4,13.8247685 L8.4,14.1913416 L5.9625,16.845836 C5.7277,17.0732629 5.73016,17.5024719 5.9675,17.7271281 C6.20492,17.951764 6.6286,17.9257955 6.83742,17.6737753 L8.39992,15.9673146 L8.39992,16.8584764 C8.39552,17.179018 8.6829,17.4738539 8.99992,17.4738539 C9.31694,17.4738539 9.6044,17.179018 9.59992,16.8584764 L9.59992,15.9673146 L11.16242,17.6737753 C11.37124,17.9257955 11.79492,17.951764 12.03234,17.7271281 C12.26976,17.5024719 12.27222,17.0732629 12.03734,16.845836 L9.6,14.1976517 L9.6,13.8247685 L16.2,13.8247685 C16.63282,13.8247685 17,13.4534629 17,13.0157798 L17,3.71240292 L17.4,3.71240292 C17.71414,3.71240292 17.99996,3.42335124 18,3.10566135 L18,1.8921782 C17.99996,1.57452876 17.71414,1.28547708 17.4,1.28543663 L9.6,1.28543663 L9.6,0.678695056 C9.6046,0.341344719 9.28248,0.0375229213 8.95,0.0656332584 Z M2.2,3.71240292 L15.8,3.71240292 L15.8,12.6112854 L2.2,12.6112854 L2.2,3.71240292 Z" id="Shape"></path>
                    </g>
                </g>
            </g>
        </g>
    </g>
</svg>