<?xml version="1.0" encoding="UTF-8"?>
<svg width="51px" height="51px" viewBox="0 0 51 51" version="1.1" xmlns="http://www.w3.org/2000/svg" xmlns:xlink="http://www.w3.org/1999/xlink">
    <!-- Generator: Sketch 47 (45396) - http://www.bohemiancoding.com/sketch -->
    <title>professor</title>
    <desc>Created with Sketch.</desc>
    <defs>
        <circle id="path-1" cx="24.5" cy="24.5" r="24.5"></circle>
    </defs>
    <g id="Designs-" stroke="none" stroke-width="1" fill="none" fill-rule="evenodd">
        <g id="Professor_01" transform="translate(-1371.000000, -17.000000)">
            <g id="professor" transform="translate(1372.000000, 18.000000)">
                <mask id="mask-2" fill="white">
                    <use xlink:href="#path-1"></use>
                </mask>
                <use id="Mask" stroke="#000000" stroke-width="1.44" xlink:href="#path-1"></use>
                <g id="noun_1182965_cc" mask="url(#mask-2)">
                    <g transform="translate(4.683824, 6.125000)" id="Group">
                        <g>
                            <path d="M6.91634099,14.6139347 C6.81032445,14.9696351 6.75533456,15.3411884 6.75533456,15.7147233 C6.75533456,17.5932969 8.11323805,19.1518392 9.88529963,19.445614 C11.4126314,23.4588851 15.2896664,26.3233134 19.8325248,26.3233134 C24.4140248,26.3233134 28.2127858,23.5019853 29.686614,19.4525496 C31.4799779,19.1776002 32.8611654,17.6086544 32.8611654,15.7147233 C32.8611654,15.3411884 32.806671,14.9696351 32.700159,14.6139347 C33.7414991,13.9347353 34.4033594,12.7457647 34.4033594,11.4621719 C34.4033594,10.4535285 34.0015864,9.49690257 33.3050478,8.79986857 C33.4531737,8.41246232 33.5299614,7.99879963 33.5299614,7.57770588 C33.5299614,5.75808548 32.1051783,4.26989062 30.3266765,4.19904779 C29.9511599,2.74206342 28.6541912,1.68734743 27.1001075,1.68734743 C26.5779513,1.68734743 26.0894825,1.82110662 25.649068,2.03858915 C23.9820322,0.908076287 21.9810938,0.247702206 19.831534,0.247702206 C17.6591857,0.247702206 15.6389265,0.906590074 13.9525699,2.03165349 C13.5156232,1.81763879 13.0321085,1.68734743 12.5154017,1.68734743 C10.961318,1.68734743 9.66484467,2.74206342 9.28883272,4.19904779 C7.51082629,4.27038603 6.0860432,5.75858088 6.0860432,7.57770588 C6.0860432,7.99879963 6.16283088,8.41246232 6.3109568,8.79986857 C5.6144182,9.49690257 5.21264522,10.4535285 5.21264522,11.4621719 C5.21314063,12.7462601 5.87500092,13.9347353 6.91634099,14.6139347 Z M19.831534,24.8371002 C18.4889881,24.8371002 17.2167895,24.5393621 16.0664605,24.0186921 L16.0664605,21.0155506 C16.0664605,19.6933162 17.3282555,18.6177932 18.8788713,18.6177932 L20.6113006,18.6177932 C22.1619164,18.6177932 23.4237114,19.6933162 23.4237114,21.0155506 L23.4237114,24.1088557 C22.3278768,24.5770129 21.1161176,24.8371002 19.8320294,24.8371002 L19.831534,24.8371002 L19.831534,24.8371002 Z M27.1001075,3.17306526 C28.1067693,3.17306526 28.9197279,3.98007904 28.9494522,5.01052022 C28.9558925,5.22948897 29.0589366,5.4345864 29.2298511,5.57082261 C29.4017564,5.70705882 29.6236976,5.76155331 29.8391985,5.71696691 C29.9536369,5.6936829 30.072534,5.6822886 30.1924219,5.6822886 C31.2134504,5.6822886 32.0427574,6.53289798 32.0427574,7.57770588 C32.0427574,7.94034191 31.9421903,8.29356526 31.751955,8.59823897 C31.5419035,8.93313235 31.6320671,9.37354688 31.9550708,9.6004421 C32.5569871,10.0220313 32.9156599,10.7180744 32.9156599,11.4621719 C32.9156599,12.3955138 32.342477,13.2436461 31.4893906,13.5730901 C31.2907335,13.6493824 31.1341857,13.8079118 31.0603704,14.0070643 C30.9865551,14.2062169 31.0009219,14.4286535 31.1009936,14.6159164 C31.2793392,14.9508097 31.3739614,15.3302895 31.3739614,15.7147233 C31.3739614,16.600011 30.8790524,17.3624384 30.1587344,17.742909 C30.2820901,17.0815441 30.3514467,16.3983814 30.3514467,15.6954026 L30.3514467,10.9489329 C30.3514467,7.88981066 29.0812298,5.12892188 27.0510625,3.17702849 C27.0684017,3.17603768 27.0837592,3.17306526 27.1001075,3.17306526 Z M19.8325248,1.73391544 C24.8133208,1.73391544 28.8662243,5.86756985 28.8662243,10.9489329 L28.8662243,15.6954026 C28.8662243,18.9021553 27.3131314,21.673943 24.91042,23.3008511 L24.91042,21.016046 C24.91042,18.8744127 22.9818107,17.1320754 20.611796,17.1320754 L18.8793667,17.1320754 C16.5088566,17.1320754 14.5807426,18.8744127 14.5807426,21.016046 L14.5807426,23.172046 C12.2191498,21.5129366 10.6690294,18.7738456 10.6690294,15.6745956 L10.6690294,10.9315938 C10.668534,5.85964338 14.7793998,1.73391544 19.8325248,1.73391544 Z M7.65994301,9.59994669 C7.9834421,9.37305147 8.07261489,8.93263695 7.86305882,8.59823897 C7.67282353,8.29406066 7.57275184,7.94133272 7.57275184,7.57770588 C7.57275184,6.53289798 8.40255423,5.6822886 9.42308732,5.6822886 C9.54297518,5.6822886 9.66137684,5.6936829 9.77581526,5.71696691 C9.98982996,5.7605625 10.2132574,5.70705882 10.3851627,5.57082261 C10.557068,5.4350818 10.6596167,5.22998438 10.666057,5.01052022 C10.6962767,3.98007904 11.5082445,3.17306526 12.5149063,3.17306526 C12.5198603,3.17306526 12.5253097,3.17405607 12.5302638,3.17405607 C10.4738401,5.12347243 9.18182537,7.87544393 9.18182537,10.9306029 L9.18182537,15.6736048 C9.18182537,16.3661801 9.25365901,17.0419118 9.38048254,17.6983226 C8.7022739,17.3049715 8.24105239,16.5678097 8.24105239,15.7142279 C8.24105239,15.3297941 8.33517923,14.9498189 8.51352482,14.615421 C8.61359651,14.4276627 8.62845864,14.2057215 8.55414798,14.0065689 C8.47983732,13.8074164 8.32378493,13.6488869 8.12512776,13.5725947 C7.27204136,13.2431507 6.69885846,12.3950184 6.69885846,11.4616765 C6.69935386,10.7180744 7.05852206,10.0215358 7.65994301,9.59994669 Z" id="Shape" fill="#000000" fill-rule="nonzero"></path>
                            <path d="M12.4846866,12.371239 C12.4846866,13.9946792 13.8059301,15.3159228 15.4293704,15.3159228 C16.9646287,15.3159228 18.2274145,14.1338879 18.3606783,12.6328125 L21.3038759,12.6328125 C21.4371397,14.1338879 22.6999256,15.3159228 24.2351838,15.3159228 C25.8591195,15.3159228 27.1798676,13.9946792 27.1798676,12.371239 C27.1798676,10.7477987 25.8591195,9.42705055 24.2351838,9.42705055 C22.9778474,9.42705055 21.9048015,10.2211838 21.4832123,11.3328713 L21.4832123,11.1465993 L18.1035634,11.1465993 C17.6378833,10.1334972 16.6153686,9.42655515 15.4293704,9.42655515 C13.8054347,9.42655515 12.4846866,10.7473033 12.4846866,12.371239 Z M24.2351838,10.9127684 C25.0397206,10.9127684 25.6936544,11.5667022 25.6936544,12.3707436 C25.6936544,13.1752803 25.0397206,13.8292142 24.2351838,13.8292142 C23.4311425,13.8292142 22.7767132,13.1752803 22.7767132,12.3707436 C22.7767132,11.5671976 23.4311425,10.9127684 24.2351838,10.9127684 Z M15.4293704,10.9127684 C16.2334118,10.9127684 16.887841,11.5667022 16.887841,12.3707436 C16.887841,13.1752803 16.2334118,13.8292142 15.4293704,13.8292142 C14.625329,13.8292142 13.9708998,13.1752803 13.9708998,12.3707436 C13.9708998,11.5671976 14.6248336,10.9127684 15.4293704,10.9127684 Z" id="Shape" fill="#000000" fill-rule="nonzero"></path>
                            <rect id="Rectangle-path" fill="#000000" fill-rule="nonzero" transform="translate(19.734176, 21.305799) rotate(-90.131780) translate(-19.734176, -21.305799) " x="18.9910672" y="19.5941721" width="1.48621717" height="3.42325354"></rect>
                            <path d="M20.0931075,34.6005303 C18.5583447,34.6005303 17.3094301,35.8494449 17.3094301,37.3847031 C17.3094301,38.9199614 18.5583447,40.1683805 20.0931075,40.1683805 C21.6278704,40.1683805 22.8772803,38.919466 22.8772803,37.3847031 C22.8772803,35.8499403 21.6278704,34.6005303 20.0931075,34.6005303 Z M20.0931075,38.6821673 C19.3777436,38.6821673 18.7956434,38.1000671 18.7956434,37.3847031 C18.7956434,36.6693392 19.3777436,36.0867436 20.0931075,36.0867436 C20.8084715,36.0867436 21.3910671,36.6693392 21.3910671,37.3847031 C21.3910671,38.1000671 20.8084715,38.6821673 20.0931075,38.6821673 Z" id="Shape" fill="#000000" fill-rule="nonzero"></path>
                            <path d="M36.0649458,31.5300138 L36.3007583,29.8580239 C36.3889403,29.2362914 36.2175303,28.6571636 35.8053539,28.1820708 C35.3936728,27.7084642 34.8442693,27.4582849 34.2165919,27.4582849 L28.7369237,27.4582849 L26.4922463,26.2108566 L25.799671,27.4582849 L14.3890211,27.4582849 L14.4073511,27.4483768 L13.7038768,26.139023 L11.2486526,27.4577895 L5.97061397,27.4577895 C5.34293658,27.4577895 4.79353309,27.7079688 4.38086121,28.1820708 C3.96918015,28.6566682 3.79826563,29.235796 3.8854568,29.8575285 L4.08956342,31.3031186 L0.30764614,33.3347721 L0.30764614,39.8329917 L1.79385938,39.8329917 L1.79385938,34.2235276 L4.31100919,32.8715689 L5.56289614,41.7432711 L5.20026011,41.7432711 C4.70584651,41.7432711 4.28178033,41.7853805 3.94044669,41.8686085 C3.75219301,41.9141857 3.25232996,42.0355597 3.07497518,42.4913318 C2.97886673,42.739034 3.01057261,43.0204237 3.16068015,43.2448419 L5.48858548,46.7215901 C5.59658364,46.8825965 5.8839182,47.3106259 7.52866085,47.3106259 L8.17863143,47.3106259 L32.0100607,47.3106259 L32.6595358,47.3106259 C34.3037831,47.3106259 34.5911176,46.8825965 34.7001066,46.7210947 L37.0270211,43.2443465 C37.1771287,43.0204237 37.20933,42.7385386 37.1132215,42.4908364 C36.9358667,42.0350643 36.4355083,41.9136903 36.2472546,41.8676176 C35.905921,41.7848851 35.4818548,41.7427757 34.9869458,41.7427757 L34.6238143,41.7427757 L35.8425092,33.1058952 L37.8384936,34.2151057 L37.8384936,39.8320009 L39.3247068,39.8320009 L39.3247068,33.3417077 L36.0649458,31.5300138 Z M4.94165901,43.2344384 C5.02092371,43.231466 5.10662868,43.2294844 5.19976471,43.2294844 L5.7719568,43.2294844 L5.99488879,44.8078428 L4.94165901,43.2344384 Z M34.985955,43.2299798 C35.079091,43.2299798 35.1652914,43.2319614 35.2445561,43.2349338 L34.1908309,44.8083382 L34.4132675,43.2299798 L34.985955,43.2299798 Z M34.8289118,29.649954 L32.6218851,45.2923483 C32.5782895,45.6009853 32.3211746,45.8249081 32.0095653,45.8249081 L8.17764063,45.8249081 C7.86603125,45.8249081 7.60792555,45.6009853 7.56432996,45.2918529 L5.35730331,29.6504494 C5.33055147,29.4592233 5.37662408,29.3026756 5.5024568,29.1575221 C5.62878493,29.0123686 5.77790165,28.9444982 5.97061397,28.9444982 L34.2165919,28.9444982 C34.4093042,28.9444982 34.5574301,29.0123686 34.6832629,29.1570267 C34.809591,29.3021801 34.8556636,29.4592233 34.8289118,29.649954 Z" id="Shape" fill="#000000" fill-rule="nonzero"></path>
                        </g>
                    </g>
                </g>
            </g>
        </g>
    </g>
</svg>