<?xml version="1.0" encoding="UTF-8"?>
<svg width="45px" height="45px" viewBox="0 0 45 45" version="1.1" xmlns="http://www.w3.org/2000/svg" xmlns:xlink="http://www.w3.org/1999/xlink">
    <!-- Generator: Sketch 47.1 (45422) - http://www.bohemiancoding.com/sketch -->
    <title>SmileyFace_Green</title>
    <desc>Created with Sketch.</desc>
    <defs></defs>
    <g id="Presentation-Mode" stroke="none" stroke-width="1" fill="none" fill-rule="evenodd">
        <g id="Revision_11/14" transform="translate(-1081.000000, -434.000000)" fill-rule="nonzero" fill="#13C456">
            <g id="SmileyFace_Green" transform="translate(1081.000000, 434.000000)">
                <g id="Group">
                    <path d="M22.2882884,0.477931034 C10.0646169,0.477931034 0.120315111,10.4531897 0.120315111,22.7149138 C0.120315111,34.9766379 10.0646169,44.9518966 22.2882884,44.9518966 C34.5119599,44.9518966 44.4562616,34.9766379 44.4562616,22.7149138 C44.4562616,10.4531897 34.5119599,0.477931034 22.2882884,0.477931034 Z M22.2882884,42.6607759 C11.3245739,42.6607759 2.40432561,33.7127586 2.40432561,22.7149138 C2.40432561,11.717069 11.3245739,2.76905172 22.2882884,2.76905172 C33.2520029,2.76905172 42.1722511,11.717069 42.1722511,22.7149138 C42.1722511,33.7127586 33.2527763,42.6607759 22.2882884,42.6607759 Z" id="Shape"></path>
                    <path d="M34.0277775,26.1721552 C33.4902268,25.8408621 32.7871568,26.0107759 32.4568919,26.55 C29.6917928,31.0771552 26.0805347,33.57 22.2875149,33.57 C18.4952686,33.57 14.8840105,31.0771552 12.1189114,26.55 C11.7894199,26.0107759 11.0871234,25.8408621 10.5487992,26.1721552 C10.0112485,26.5026724 9.84263547,27.207931 10.1713535,27.7471552 C13.3680401,32.979569 17.6707663,35.8618966 22.2875149,35.8618966 C26.9042635,35.8618966 31.2077632,32.9803448 34.4044497,27.7471552 C34.7347147,27.207931 34.5661017,26.5026724 34.0277775,26.1721552 Z" id="Shape"></path>
                    <ellipse id="Oval" cx="14.8654476" cy="16.7694828" rx="3.04508952" ry="3.05456897"></ellipse>
                    <ellipse id="Oval" cx="29.7111291" cy="16.7694828" rx="3.04508952" ry="3.05456897"></ellipse>
                </g>
            </g>
        </g>
    </g>
</svg>