<?xml version="1.0" encoding="UTF-8"?>
<svg width="21px" height="20px" viewBox="0 0 21 20" version="1.1" xmlns="http://www.w3.org/2000/svg" xmlns:xlink="http://www.w3.org/1999/xlink">
    <!-- Generator: Sketch 47 (45396) - http://www.bohemiancoding.com/sketch -->
    <title>Group</title>
    <desc>Created with Sketch.</desc>
    <defs></defs>
    <g id="Designs-" stroke="none" stroke-width="1" fill="none" fill-rule="evenodd">
        <g id="Professor_01" transform="translate(-451.000000, -270.000000)" fill-rule="nonzero" fill="#5F5F5F">
            <g id="Group-9" transform="translate(50.000000, 259.000000)">
                <g id="Group-2" transform="translate(394.000000, 12.000000)">
                    <g id="Group" transform="translate(8.000000, 0.000000)">
                        <path d="M15.7280911,18.9989286 C15.8577609,18.9894717 15.9779474,18.9275507 16.0608391,18.8274941 C16.1437309,18.7274376 16.1821441,18.5979169 16.1671899,18.4689035 L15.4060695,11.9221827 L19.8740427,7.07519161 C19.9905639,6.94866442 20.0298161,6.76924612 19.976756,6.60569838 C19.9236959,6.44215064 19.7865525,6.31983792 19.6178858,6.2856363 L13.1519654,4.99164418 L9.91716772,-0.754561335 C9.83309851,-0.906027572 9.67337525,-1 9.50000002,-1 C9.32662479,-1 9.16690154,-0.906027572 9.08283232,-0.754561335 L5.84803461,4.99164418 L-0.617885807,6.2856363 C-0.786552538,6.31983792 -0.923695893,6.44215064 -0.976755981,6.60569838 C-1.02981607,6.76924612 -0.990563857,6.94866442 -0.874042668,7.07519161 L3.59393059,11.9221827 L2.83281014,18.4689035 C2.81358118,18.639712 2.88793665,18.8076266 3.02739064,18.9083184 C3.16684462,19.0090101 3.34977902,19.0268698 3.50611084,18.9550554 L9.50000002,16.209899 L15.4938892,18.9550554 C15.5669837,18.9892364 15.6475653,19.0043318 15.7280911,18.9989286 Z M15.1206553,17.7378187 L9.69759447,15.2521878 C9.57206011,15.1951142 9.42793994,15.1951142 9.30240558,15.2521878 L3.87936866,17.7378187 L4.56729803,11.8161776 C4.58352819,11.67913 4.53947902,11.5417849 4.44654587,11.4396729 L0.403042755,7.05325979 L6.25422484,5.87989391 C6.39057361,5.85253489 6.50817936,5.76709596 6.57624652,5.64594966 L9.50000002,0.455357586 L12.4237535,5.64594966 C12.4918207,5.76709596 12.6094264,5.85253489 12.7457752,5.87989391 L18.5969573,7.05325979 L14.5534542,11.4396729 C14.460521,11.5417849 14.4164719,11.67913 14.432702,11.8161776 L15.1206553,17.7378187 L15.1206553,17.7378187 Z" id="Shape"></path>
                    </g>
                </g>
            </g>
        </g>
    </g>
</svg>
