<?xml version="1.0" encoding="UTF-8"?>
<svg width="21px" height="20px" viewBox="0 0 21 20" version="1.1" xmlns="http://www.w3.org/2000/svg" xmlns:xlink="http://www.w3.org/1999/xlink">
    <!-- Generator: Sketch 47 (45396) - http://www.bohemiancoding.com/sketch -->
    <title>Shape</title>
    <desc>Created with Sketch.</desc>
    <defs></defs>
    <g id="Designs-" stroke="none" stroke-width="1" fill="none" fill-rule="evenodd">
        <g id="Professor_01" transform="translate(-451.000000, -270.000000)" fill-rule="nonzero" fill="#F5AA23">
            <g id="Group-9" transform="translate(50.000000, 259.000000)">
                <g id="Group-2" transform="translate(394.000000, 11.000000)">
                    <g id="Group" transform="translate(7.000000, 0.000000)">
                        <path d="M16.7280911,19.9989286 C16.6475653,20.0043318 16.5669837,19.9892364 16.4938892,19.9550554 L10.5,17.209899 L4.50611084,19.9550554 C4.34977902,20.0268698 4.16684462,20.0090101 4.02739064,19.9083184 C3.88793665,19.8076266 3.81358118,19.639712 3.83281014,19.4689035 L4.59393059,12.9221827 L0.125957332,8.07519161 C0.0094361434,7.94866442 -0.029816069,7.76924612 0.0232440189,7.60569838 C0.0763041068,7.44215064 0.213447462,7.31983792 0.382114193,7.2856363 L6.84803461,5.99164418 L10.0828323,0.245438665 C10.1669015,0.0939724278 10.3266248,0 10.5,0 C10.6733753,0 10.8330985,0.0939724278 10.9171677,0.245438665 L14.1519654,5.99164418 L20.6178858,7.2856363 C20.7865525,7.31983792 20.9236959,7.44215064 20.976756,7.60569838 C21.0298161,7.76924612 20.9905639,7.94866442 20.8740427,8.07519161 L16.4060695,12.9221827 L17.1671899,19.4689035 C17.1821441,19.5979169 17.1437309,19.7274376 17.0608391,19.8274941 C16.9779474,19.9275507 16.8577609,19.9894717 16.7280911,19.9989286 Z" id="Shape"></path>
                    </g>
                </g>
            </g>
        </g>
    </g>
</svg>