<?xml version="1.0" encoding="UTF-8"?>
<svg width="45px" height="45px" viewBox="0 0 45 45" version="1.1" xmlns="http://www.w3.org/2000/svg" xmlns:xlink="http://www.w3.org/1999/xlink">
    <!-- Generator: Sketch 47.1 (45422) - http://www.bohemiancoding.com/sketch -->
    <title>WeirdFace_Orange</title>
    <desc>Created with Sketch.</desc>
    <defs></defs>
    <g id="Presentation-Mode" stroke="none" stroke-width="1" fill="none" fill-rule="evenodd">
        <g id="Revision_11/14" transform="translate(-1081.000000, -554.000000)">
            <g id="WeirdFace_Orange" transform="translate(1081.000000, 554.000000)">
                <g id="noun_850650_cc-copy-2" fill-rule="nonzero" fill="#F5A623">
                    <g id="Group">
                        <path d="M22.2882884,0.477931034 C10.0646169,0.477931034 0.120315111,10.4531897 0.120315111,22.7149138 C0.120315111,34.9766379 10.0646169,44.9518966 22.2882884,44.9518966 C34.5119599,44.9518966 44.4562616,34.9766379 44.4562616,22.7149138 C44.4562616,10.4531897 34.5119599,0.477931034 22.2882884,0.477931034 Z M22.2882884,42.6607759 C11.3245739,42.6607759 2.40432561,33.7127586 2.40432561,22.7149138 C2.40432561,11.717069 11.3245739,2.76905172 22.2882884,2.76905172 C33.2520029,2.76905172 42.1722511,11.717069 42.1722511,22.7149138 C42.1722511,33.7127586 33.2527763,42.6607759 22.2882884,42.6607759 Z" id="Shape"></path>
                        <ellipse id="Oval" cx="14.8654476" cy="16.7694828" rx="3.04508952" ry="3.05456897"></ellipse>
                        <ellipse id="Oval" cx="29.7111291" cy="16.7694828" rx="3.04508952" ry="3.05456897"></ellipse>
                    </g>
                </g>
                <path d="M11.71875,29.53125 C16.5845749,30.3878243 20.18172,30.8161115 22.5101854,30.8161115 C24.8386508,30.8161115 28.4736867,30.3878243 33.4152932,29.53125" id="Line-6" stroke="#F5A623" stroke-width="2.5" stroke-linecap="round"></path>
            </g>
        </g>
    </g>
</svg>